# xmcd
#
# Track frame offsets: 
#        150
#        16550
#        42132
#        60001
#        78869
#        117743
#        130787
#        150108
#        169790
#        189544
#        210877
#
# Disc length: 3250 seconds
#
# Revision: 0
# Processed by: cddbd v1.5.1PL2 Copyright (c) Steve Scherf et al.
# Submitted via: ExactAudioCopy v0.95b2
#
DISCID=710cb00b
DTITLE=Albert King - Albert King - Stax Profiles
DYEAR=2006
DGENRE=Blues
TTITLE0=Born Under a Bad Sign
TTITLE1=Lovingest Woman In Town
TTITLE2=She Caught the Katy and Left Me a Mule to Ride
TTITLE3=The Sky Is Crying
TTITLE4=Don't Throw Your Love on Me So Strong
TTITLE5=(I Love) Lucy
TTITLE6=Can't You See What You're Doing to Me
TTITLE7=Everybody Wants to Go to Heaven
TTITLE8=Angel of Mercy
TTITLE9=Oh, Pretty Woman
TTITLE10=I'll Play the Blues for You
EXTD=
EXTT0=
EXTT1=
EXTT2=
EXTT3=
EXTT4=
EXTT5=
EXTT6=
EXTT7=
EXTT8=
EXTT9=
EXTT10=
PLAYORDER=
